<svg width="400" height="300" viewBox="0 0 400 300" fill="none" xmlns="http://www.w3.org/2000/svg">
  <defs>
    <linearGradient id="bgGradient2" x1="0%" y1="0%" x2="100%" y2="100%">
      <stop offset="0%" style="stop-color:#E6FFFA;stop-opacity:1" />
      <stop offset="100%" style="stop-color:#B2F5EA;stop-opacity:1" />
    </linearGradient>
    <linearGradient id="pianoGradient" x1="0%" y1="0%" x2="100%" y2="100%">
      <stop offset="0%" style="stop-color:#2D3748;stop-opacity:1" />
      <stop offset="100%" style="stop-color:#4A5568;stop-opacity:1" />
    </linearGradient>
    <linearGradient id="studentGradient" x1="0%" y1="0%" x2="100%" y2="100%">
      <stop offset="0%" style="stop-color:#4A5568;stop-opacity:1" />
      <stop offset="100%" style="stop-color:#2D3748;stop-opacity:1" />
    </linearGradient>
  </defs>
  
  <!-- Background -->
  <rect width="400" height="300" fill="url(#bgGradient2)"/>
  
  <!-- Decorative elements -->
  <circle cx="70" cy="50" r="30" fill="#38B2AC" opacity="0.08"/>
  <circle cx="330" cy="250" r="25" fill="#38B2AC" opacity="0.08"/>
  <circle cx="360" cy="70" r="20" fill="#38B2AC" opacity="0.08"/>
  
  <!-- Multiple students (more detailed) -->
  <!-- Student 1 -->
  <circle cx="120" cy="130" r="18" fill="url(#studentGradient)"/>
  <path d="M102 120 Q120 105 138 120 Q136 115 120 115 Q104 115 102 120" fill="#2D3748"/>
  <rect x="110" y="148" width="20" height="35" fill="url(#studentGradient)" rx="2"/>
  <rect x="100" y="155" width="15" height="4" fill="url(#studentGradient)" rx="2" transform="rotate(-15 100 155)"/>
  <rect x="135" y="155" width="15" height="4" fill="url(#studentGradient)" rx="2" transform="rotate(15 135 155)"/>
  
  <!-- Student 2 -->
  <circle cx="180" cy="125" r="20" fill="url(#studentGradient)"/>
  <path d="M160 115 Q180 100 200 115 Q198 110 180 110 Q162 110 160 115" fill="#2D3748"/>
  <rect x="168" y="145" width="24" height="38" fill="url(#studentGradient)" rx="2"/>
  <rect x="158" y="152" width="18" height="4" fill="url(#studentGradient)" rx="2" transform="rotate(-20 158 152)"/>
  <rect x="194" y="152" width="18" height="4" fill="url(#studentGradient)" rx="2" transform="rotate(20 194 152)"/>
  
  <!-- Student 3 -->
  <circle cx="240" cy="135" r="16" fill="url(#studentGradient)"/>
  <path d="M224 125 Q240 110 256 125 Q254 120 240 120 Q226 120 224 125" fill="#2D3748"/>
  <rect x="231" y="151" width="18" height="32" fill="url(#studentGradient)" rx="2"/>
  <rect x="222" y="158" width="13" height="3" fill="url(#studentGradient)" rx="1.5" transform="rotate(-18 222 158)"/>
  <rect x="255" y="158" width="13" height="3" fill="url(#studentGradient)" rx="1.5" transform="rotate(18 255 158)"/>
  
  <!-- Student 4 -->
  <circle cx="300" cy="128" r="19" fill="url(#studentGradient)"/>
  <path d="M281 118 Q300 103 319 118 Q317 113 300 113 Q283 113 281 118" fill="#2D3748"/>
  <rect x="289" y="146" width="22" height="36" fill="url(#studentGradient)" rx="2"/>
  <rect x="279" y="153" width="16" height="4" fill="url(#studentGradient)" rx="2" transform="rotate(-17 279 153)"/>
  <rect x="315" y="153" width="16" height="4" fill="url(#studentGradient)" rx="2" transform="rotate(17 315 153)"/>
  
  <!-- Beautiful Piano/Keyboard -->
  <rect x="100" y="200" width="140" height="25" fill="url(#pianoGradient)" rx="3"/>
  <!-- White keys -->
  <rect x="105" y="200" width="18" height="25" fill="#F7FAFC" rx="2"/>
  <rect x="128" y="200" width="18" height="25" fill="#F7FAFC" rx="2"/>
  <rect x="151" y="200" width="18" height="25" fill="#F7FAFC" rx="2"/>
  <rect x="174" y="200" width="18" height="25" fill="#F7FAFC" rx="2"/>
  <rect x="197" y="200" width="18" height="25" fill="#F7FAFC" rx="2"/>
  <rect x="220" y="200" width="18" height="25" fill="#F7FAFC" rx="2"/>
  <!-- Black keys -->
  <rect x="118" y="200" width="12" height="15" fill="#2D3748" rx="1"/>
  <rect x="141" y="200" width="12" height="15" fill="#2D3748" rx="1"/>
  <rect x="187" y="200" width="12" height="15" fill="#2D3748" rx="1"/>
  <rect x="210" y="200" width="12" height="15" fill="#2D3748" rx="1"/>
  
  <!-- Sheet music stand -->
  <rect x="110" y="170" width="120" height="3" fill="#8B4513"/>
  <rect x="115" y="165" width="110" height="3" fill="#8B4513"/>
  <rect x="120" y="160" width="100" height="3" fill="#8B4513"/>
  <rect x="125" y="155" width="90" height="3" fill="#8B4513"/>
  <rect x="130" y="150" width="80" height="3" fill="#8B4513"/>
  
  <!-- Music notes on staff -->
  <g fill="#38B2AC">
    <circle cx="140" cy="165" r="3"/>
    <circle cx="160" cy="160" r="3"/>
    <circle cx="180" cy="155" r="3"/>
    <circle cx="200" cy="150" r="3"/>
  </g>
  
  <!-- Floating music notes -->
  <g fill="#38B2AC">
    <!-- First note -->
    <circle cx="320" cy="100" r="5"/>
    <path d="M325 100 L325 120" stroke="#38B2AC" stroke-width="1.5" fill="none"/>
    <path d="M325 120 Q328 120 328 117 Q328 114 325 114" stroke="#38B2AC" stroke-width="1.5" fill="none"/>
    
    <!-- Second note -->
    <circle cx="340" cy="85" r="4"/>
    <path d="M344 85 L344 100" stroke="#38B2AC" stroke-width="1.5" fill="none"/>
    <path d="M344 100 Q347 100 347 97 Q347 94 344 94" stroke="#38B2AC" stroke-width="1.5" fill="none"/>
    
    <!-- Third note -->
    <circle cx="360" cy="110" r="3"/>
    <path d="M363 110 L363 120" stroke="#38B2AC" stroke-width="1" fill="none"/>
  </g>
  
  <!-- Decorative elements -->
  <circle cx="80" cy="180" r="4" fill="#38B2AC" opacity="0.6"/>
  <circle cx="85" cy="190" r="3" fill="#38B2AC" opacity="0.4"/>
  <circle cx="90" cy="200" r="3.5" fill="#38B2AC" opacity="0.5"/>
  
  <!-- Connection lines between students -->
  <path d="M138 130 Q150 125 160 125" stroke="#38B2AC" stroke-width="1.5" stroke-dasharray="2,2" opacity="0.4" fill="none"/>
  <path d="M200 125 Q220 130 224 135" stroke="#38B2AC" stroke-width="1.5" stroke-dasharray="2,2" opacity="0.4" fill="none"/>
  <path d="M256 135 Q270 130 281 128" stroke="#38B2AC" stroke-width="1.5" stroke-dasharray="2,2" opacity="0.4" fill="none"/>
</svg>
