<svg width="400" height="300" viewBox="0 0 400 300" fill="none" xmlns="http://www.w3.org/2000/svg">
  <defs>
    <linearGradient id="bgGradient" x1="0%" y1="0%" x2="100%" y2="100%">
      <stop offset="0%" style="stop-color:#E6FFFA;stop-opacity:1" />
      <stop offset="100%" style="stop-color:#B2F5EA;stop-opacity:1" />
    </linearGradient>
    <linearGradient id="guitarGradient" x1="0%" y1="0%" x2="100%" y2="100%">
      <stop offset="0%" style="stop-color:#8B4513;stop-opacity:1" />
      <stop offset="100%" style="stop-color:#A0522D;stop-opacity:1" />
    </linearGradient>
    <linearGradient id="teacherGradient" x1="0%" y1="0%" x2="100%" y2="100%">
      <stop offset="0%" style="stop-color:#2D3748;stop-opacity:1" />
      <stop offset="100%" style="stop-color:#4A5568;stop-opacity:1" />
    </linearGradient>
  </defs>
  
  <!-- Background -->
  <rect width="400" height="300" fill="url(#bgGradient)"/>
  
  <!-- Decorative elements -->
  <circle cx="80" cy="60" r="25" fill="#38B2AC" opacity="0.1"/>
  <circle cx="320" cy="240" r="20" fill="#38B2AC" opacity="0.1"/>
  <circle cx="350" cy="80" r="15" fill="#38B2AC" opacity="0.1"/>
  
  <!-- Teacher figure (more detailed) -->
  <circle cx="140" cy="120" r="22" fill="url(#teacherGradient)"/>
  <!-- Teacher's hair -->
  <path d="M118 110 Q140 95 162 110 Q160 105 140 105 Q120 105 118 110" fill="#2D3748"/>
  <!-- Teacher's body -->
  <rect x="128" y="142" width="24" height="45" fill="url(#teacherGradient)" rx="2"/>
  <!-- Teacher's arms -->
  <rect x="115" y="150" width="20" height="5" fill="url(#teacherGradient)" rx="2.5" transform="rotate(-15 115 150)"/>
  <rect x="165" y="150" width="20" height="5" fill="url(#teacherGradient)" rx="2.5" transform="rotate(15 165 150)"/>
  
  <!-- Student figure (smaller, more detailed) -->
  <circle cx="200" cy="140" r="18" fill="#4A5568"/>
  <!-- Student's hair -->
  <path d="M182 130 Q200 115 218 130 Q216 125 200 125 Q184 125 182 130" fill="#2D3748"/>
  <!-- Student's body -->
  <rect x="190" y="158" width="20" height="35" fill="#4A5568" rx="2"/>
  <!-- Student's arms -->
  <rect x="180" y="165" width="15" height="4" fill="#4A5568" rx="2" transform="rotate(-20 180 165)"/>
  <rect x="215" y="165" width="15" height="4" fill="#4A5568" rx="2" transform="rotate(20 215 165)"/>
  
  <!-- Beautiful guitar -->
  <ellipse cx="180" cy="220" rx="28" ry="18" fill="url(#guitarGradient)"/>
  <ellipse cx="180" cy="220" rx="24" ry="14" fill="#A0522D"/>
  <!-- Guitar neck -->
  <rect x="175" y="190" width="10" height="50" fill="#8B4513" rx="2"/>
  <!-- Guitar head -->
  <rect x="170" y="180" width="20" height="12" fill="#8B4513" rx="3"/>
  <!-- Guitar strings -->
  <line x1="175" y1="195" x2="175" y2="240" stroke="#F7FAFC" stroke-width="0.5"/>
  <line x1="177" y1="195" x2="177" y2="240" stroke="#F7FAFC" stroke-width="0.5"/>
  <line x1="179" y1="195" x2="179" y2="240" stroke="#F7FAFC" stroke-width="0.5"/>
  <line x1="181" y1="195" x2="181" y2="240" stroke="#F7FAFC" stroke-width="0.5"/>
  <line x1="183" y1="195" x2="183" y2="240" stroke="#F7FAFC" stroke-width="0.5"/>
  <line x1="185" y1="195" x2="185" y2="240" stroke="#F7FAFC" stroke-width="0.5"/>
  
  <!-- Music notes (more detailed) -->
  <g fill="#38B2AC">
    <!-- First note -->
    <circle cx="250" cy="100" r="6"/>
    <path d="M256 100 L256 125" stroke="#38B2AC" stroke-width="2" fill="none"/>
    <path d="M256 125 Q260 125 260 120 Q260 115 256 115" stroke="#38B2AC" stroke-width="2" fill="none"/>
    
    <!-- Second note -->
    <circle cx="270" cy="85" r="5"/>
    <path d="M275 85 L275 105" stroke="#38B2AC" stroke-width="2" fill="none"/>
    <path d="M275 105 Q279 105 279 100 Q279 95 275 95" stroke="#38B2AC" stroke-width="2" fill="none"/>
    
    <!-- Third note -->
    <circle cx="290" cy="110" r="4"/>
    <path d="M294 110 L294 125" stroke="#38B2AC" stroke-width="1.5" fill="none"/>
  </g>
  
  <!-- Decorative musical staff -->
  <g stroke="#38B2AC" stroke-width="1" opacity="0.3">
    <line x1="240" y1="160" x2="280" y2="160"/>
    <line x1="240" y1="165" x2="280" y2="165"/>
    <line x1="240" y1="170" x2="280" y2="170"/>
    <line x1="240" y1="175" x2="280" y2="175"/>
    <line x1="240" y1="180" x2="280" y2="180"/>
  </g>
  
  <!-- Small decorative elements -->
  <circle cx="300" cy="200" r="3" fill="#38B2AC" opacity="0.6"/>
  <circle cx="310" cy="210" r="2" fill="#38B2AC" opacity="0.4"/>
  <circle cx="305" cy="220" r="2.5" fill="#38B2AC" opacity="0.5"/>
  
  <!-- Connection line between teacher and student -->
  <path d="M162 120 Q180 130 182 140" stroke="#38B2AC" stroke-width="2" stroke-dasharray="3,3" opacity="0.6" fill="none"/>
</svg>
