<svg width="400" height="300" viewBox="0 0 400 300" fill="none" xmlns="http://www.w3.org/2000/svg">
  <defs>
    <linearGradient id="bgGradient4" x1="0%" y1="0%" x2="100%" y2="100%">
      <stop offset="0%" style="stop-color:#E6FFFA;stop-opacity:1" />
      <stop offset="100%" style="stop-color:#B2F5EA;stop-opacity:1" />
    </linearGradient>
    <linearGradient id="drumGradient" x1="0%" y1="0%" x2="100%" y2="100%">
      <stop offset="0%" style="stop-color:#8B4513;stop-opacity:1" />
      <stop offset="100%" style="stop-color:#A0522D;stop-opacity:1" />
    </linearGradient>
    <linearGradient id="cymbalGradient" x1="0%" y1="0%" x2="100%" y2="100%">
      <stop offset="0%" style="stop-color:#C0C0C0;stop-opacity:1" />
      <stop offset="100%" style="stop-color:#E5E5E5;stop-opacity:1" />
    </linearGradient>
    <linearGradient id="studentGradient2" x1="0%" y1="0%" x2="100%" y2="100%">
      <stop offset="0%" style="stop-color:#4A5568;stop-opacity:1" />
      <stop offset="100%" style="stop-color:#2D3748;stop-opacity:1" />
    </linearGradient>
    <radialGradient id="sunGradient" cx="50%" cy="50%" r="50%">
      <stop offset="0%" style="stop-color:#F6AD55;stop-opacity:1" />
      <stop offset="100%" style="stop-color:#ED8936;stop-opacity:1" />
    </radialGradient>
  </defs>
  
  <!-- Background -->
  <rect width="400" height="300" fill="url(#bgGradient4)"/>
  
  <!-- Decorative elements -->
  <circle cx="70" cy="50" r="30" fill="#38B2AC" opacity="0.08"/>
  <circle cx="330" cy="250" r="25" fill="#38B2AC" opacity="0.08"/>
  <circle cx="360" cy="70" r="20" fill="#38B2AC" opacity="0.08"/>
  
  <!-- Beautiful Sun symbol for summer -->
  <circle cx="80" cy="60" r="18" fill="url(#sunGradient)"/>
  <path d="M80 40 L80 35 M80 85 L80 80 M65 60 L60 60 M100 60 L95 60" stroke="#F6AD55" stroke-width="3" stroke-linecap="round"/>
  <path d="M70 50 L65 45 M95 75 L90 80 M70 70 L65 75 M95 45 L90 40" stroke="#F6AD55" stroke-width="3" stroke-linecap="round"/>
  
  <!-- Student figure (more detailed) -->
  <circle cx="200" cy="100" r="16" fill="url(#studentGradient2)"/>
  <!-- Hair -->
  <path d="M184 90 Q200 75 216 90 Q214 85 200 85 Q186 85 184 90" fill="#2D3748"/>
  <!-- Body -->
  <rect x="191" y="116" width="18" height="30" fill="url(#studentGradient2)" rx="2"/>
  <!-- Arms -->
  <rect x="181" y="123" width="13" height="3" fill="url(#studentGradient2)" rx="1.5" transform="rotate(-30 181 123)"/>
  <rect x="219" y="123" width="13" height="3" fill="url(#studentGradient2)" rx="1.5" transform="rotate(30 219 123)"/>
  
  <!-- Beautiful Drum set -->
  <!-- Bass drum -->
  <ellipse cx="200" cy="240" rx="42" ry="26" fill="url(#drumGradient)"/>
  <ellipse cx="200" cy="240" rx="36" ry="20" fill="#A0522D"/>
  <!-- Bass drum details -->
  <ellipse cx="200" cy="240" rx="30" ry="14" fill="#8B4513" opacity="0.3"/>
  
  <!-- Snare drum -->
  <ellipse cx="200" cy="200" rx="28" ry="16" fill="url(#drumGradient)"/>
  <ellipse cx="200" cy="200" rx="22" ry="10" fill="#A0522D"/>
  <!-- Snare drum details -->
  <ellipse cx="200" cy="200" rx="18" ry="6" fill="#8B4513" opacity="0.3"/>
  
  <!-- Hi-hat cymbals -->
  <ellipse cx="160" cy="180" rx="22" ry="6" fill="url(#cymbalGradient)"/>
  <ellipse cx="160" cy="180" rx="18" ry="4" fill="#E5E5E5"/>
  <!-- Hi-hat stand -->
  <rect x="158" y="180" width="4" height="20" fill="#2D3748"/>
  
  <!-- Crash cymbal -->
  <ellipse cx="240" cy="170" rx="20" ry="7" fill="url(#cymbalGradient)"/>
  <ellipse cx="240" cy="170" rx="16" ry="5" fill="#E5E5E5"/>
  <!-- Crash cymbal stand -->
  <rect x="238" y="170" width="4" height="15" fill="#2D3748"/>
  
  <!-- Floor tom -->
  <ellipse cx="160" cy="260" rx="25" ry="15" fill="url(#drumGradient)"/>
  <ellipse cx="160" cy="260" rx="20" ry="10" fill="#A0522D"/>
  
  <!-- Drum sticks -->
  <rect x="150" y="140" width="3" height="35" fill="#8B4513" transform="rotate(-15 150 140)"/>
  <rect x="250" y="135" width="3" height="35" fill="#8B4513" transform="rotate(15 250 135)"/>
  <!-- Stick tips -->
  <rect x="147" y="170" width="6" height="8" fill="#A0522D" transform="rotate(-15 147 170)"/>
  <rect x="247" y="165" width="6" height="8" fill="#A0522D" transform="rotate(15 247 165)"/>
  
  <!-- Music notes (more detailed) -->
  <g fill="#38B2AC">
    <!-- First note -->
    <circle cx="280" cy="80" r="5"/>
    <path d="M285 80 L285 100" stroke="#38B2AC" stroke-width="2" fill="none"/>
    <path d="M285 100 Q288 100 288 97 Q288 94 285 94" stroke="#38B2AC" stroke-width="2" fill="none"/>
    
    <!-- Second note -->
    <circle cx="295" cy="70" r="4"/>
    <path d="M299 70 L299 85" stroke="#38B2AC" stroke-width="2" fill="none"/>
    <path d="M299 85 Q302 85 302 82 Q302 79 299 79" stroke="#38B2AC" stroke-width="2" fill="none"/>
    
    <!-- Third note -->
    <circle cx="310" cy="90" r="3"/>
    <path d="M313 90 L313 100" stroke="#38B2AC" stroke-width="1.5" fill="none"/>
  </g>
  
  <!-- Decorative elements -->
  <circle cx="320" cy="120" r="4" fill="#38B2AC" opacity="0.6"/>
  <circle cx="325" cy="130" r="3" fill="#38B2AC" opacity="0.4"/>
  <circle cx="330" cy="140" r="3.5" fill="#38B2AC" opacity="0.5"/>
  
  <!-- Small decorative circles -->
  <circle cx="100" cy="200" r="2" fill="#F6AD55" opacity="0.6"/>
  <circle cx="110" cy="210" r="2.5" fill="#F6AD55" opacity="0.4"/>
  <circle cx="120" cy="220" r="2" fill="#F6AD55" opacity="0.5"/>
  
  <!-- Drum tension rods -->
  <circle cx="180" cy="200" r="2" fill="#2D3748"/>
  <circle cx="220" cy="200" r="2" fill="#2D3748"/>
  <circle cx="200" cy="190" r="2" fill="#2D3748"/>
  <circle cx="200" cy="210" r="2" fill="#2D3748"/>
  
  <!-- Energy lines around student -->
  <path d="M200 100 Q210 90 220 100" stroke="#38B2AC" stroke-width="1" opacity="0.4" fill="none"/>
  <path d="M200 100 Q190 90 180 100" stroke="#38B2AC" stroke-width="1" opacity="0.4" fill="none"/>
  <path d="M200 100 Q210 110 220 100" stroke="#38B2AC" stroke-width="1" opacity="0.4" fill="none"/>
  <path d="M200 100 Q190 110 180 100" stroke="#38B2AC" stroke-width="1" opacity="0.4" fill="none"/>
</svg>
